<svg width="14" height="16" viewBox="0 0 14 16" fill="none" xmlns="http://www.w3.org/2000/svg">
<path d="M1.85714 13.6875C1.85714 14.4258 2.41964 15 3.14286 15H10.8571C11.5536 15 12.1429 14.4258 12.1429 13.6875V4.5H1.85714V13.6875ZM9.14286 6.6875C9.14286 6.46875 9.33036 6.25 9.57143 6.25C9.78571 6.25 10 6.46875 10 6.6875V12.8125C10 13.0586 9.78571 13.25 9.57143 13.25C9.33036 13.25 9.14286 13.0586 9.14286 12.8125V6.6875ZM6.57143 6.6875C6.57143 6.46875 6.75893 6.25 7 6.25C7.21429 6.25 7.42857 6.46875 7.42857 6.6875V12.8125C7.42857 13.0586 7.21429 13.25 7 13.25C6.75893 13.25 6.57143 13.0586 6.57143 12.8125V6.6875ZM4 6.6875C4 6.46875 4.1875 6.25 4.42857 6.25C4.64286 6.25 4.85714 6.46875 4.85714 6.6875V12.8125C4.85714 13.0586 4.64286 13.25 4.42857 13.25C4.1875 13.25 4 13.0586 4 12.8125V6.6875ZM12.5714 1.875H9.57143L9.25 1.24609C9.16964 1.10938 9.03571 1 8.875 1H5.09821C4.9375 1 4.80357 1.10938 4.72321 1.24609L4.42857 1.875H1.42857C1.1875 1.875 1 2.09375 1 2.3125V3.1875C1 3.43359 1.1875 3.625 1.42857 3.625H12.5714C12.7857 3.625 13 3.43359 13 3.1875V2.3125C13 2.09375 12.7857 1.875 12.5714 1.875Z" fill="#D20200"/>
</svg>
